<svg 
          width="20" 
          height="20" fill="none" 
          xmlns="http://www.w3.org/2000/svg">
          <path d="M 10 0 C 11.326082468032837 1.1102230246251565e-15 12.597852071126303 0.5267839431762694 13.535533905029297 1.4644657770792642 C 14.473215738932291 2.402147610982259 14.999999999999998 3.673917531967163 15 5 C 14.999999999999998 6.326082468032837 14.473215738932291 7.597852071126302 13.535533905029297 8.535533905029297 C 12.597852071126303 9.473215738932291 11.326082468032837 9.999999999999998 10 10 C 8.673917531967163 9.999999999999998 7.402147928873698 9.473215738932291 6.464466094970703 8.535533905029297 C 5.526784261067708 7.597852071126302 5.0000000000000036 6.326082468032837 5 5 C 5.000000000000001 3.673917531967163 5.526784261067708 2.402147610982259 6.464466094970703 1.4644657770792642 C 7.402147928873698 0.5267839431762694 8.673917531967163 1.1102230246251565e-15 10 0 Z M 10 12.5 C 15.52500025431315 12.5 20 14.737499872843426 20 17.5 L 20 20 L 0 20 L 0 17.5 C 0 14.737499872843426 4.4749997456868496 12.5 10 12.5 Z" fill="rgb(255,254,252)"/>
        </svg>