<svg 
          width="20" 
          height="20" fill="none" 
          xmlns="http://www.w3.org/2000/svg">
          <path d="M 14.444444805172319 15.555556277011304 L 14.444444805172319 14.444444805172319 L 11.111111471838985 14.444444805172319 L 11.111111471838985 11.111111471838985 L 14.444444805172319 11.111111471838985 L 14.444444805172319 13.333333333333334 L 16.666666666666668 13.333333333333334 L 16.666666666666668 15.555556277011304 L 15.555556277011304 15.555556277011304 L 15.555556277011304 17.777778138505653 L 13.333333333333334 17.777778138505653 L 13.333333333333334 20 L 11.111111471838985 20 L 11.111111471838985 16.666666666666668 L 13.333333333333334 16.666666666666668 L 13.333333333333334 15.555556277011304 L 14.444444805172319 15.555556277011304 Z M 20 20 L 15.555556277011304 20 L 15.555556277011304 17.777778138505653 L 17.777778138505653 17.777778138505653 L 17.777778138505653 15.555556277011304 L 20 15.555556277011304 L 20 20 Z M 0 0 L 8.888889069252826 0 L 8.888889069252826 8.888889069252826 L 0 8.888889069252826 L 0 0 Z M 11.111111471838985 0 L 20 0 L 20 8.888889069252826 L 11.111111471838985 8.888889069252826 L 11.111111471838985 0 Z M 0 11.111111471838985 L 8.888889069252826 11.111111471838985 L 8.888889069252826 20 L 0 20 L 0 11.111111471838985 Z M 16.666666666666668 11.111111471838985 L 20 11.111111471838985 L 20 13.333333333333334 L 16.666666666666668 13.333333333333334 L 16.666666666666668 11.111111471838985 Z M 3.3333333333333335 3.3333333333333335 L 3.3333333333333335 5.5555557359194925 L 5.5555557359194925 5.5555557359194925 L 5.5555557359194925 3.3333333333333335 L 3.3333333333333335 3.3333333333333335 Z M 3.3333333333333335 14.444444805172319 L 3.3333333333333335 16.666666666666668 L 5.5555557359194925 16.666666666666668 L 5.5555557359194925 14.444444805172319 L 3.3333333333333335 14.444444805172319 Z M 14.444444805172319 3.3333333333333335 L 14.444444805172319 5.5555557359194925 L 16.666666666666668 5.5555557359194925 L 16.666666666666668 3.3333333333333335 L 14.444444805172319 3.3333333333333335 Z" fill="rgb(33,31,31)"/>
        </svg>