<svg 
          width="19.75757598876953" 
          height="20.375" fill="none" 
          xmlns="http://www.w3.org/2000/svg">
          <path d="M 11.732223127584335 20.375 L 8.025977719341252 20.375 C 7.793758510569744 20.37503864744722 7.568502425289174 20.295654183719307 7.3875678609889155 20.150012958049775 C 7.206633296688657 20.004371732380243 7.080891645840475 19.80122544495389 7.031196737681983 19.574263215065002 L 6.616789060728871 17.654937422275545 C 6.063966927070301 17.412577825691553 5.539772655266102 17.10950877927244 5.053853737233317 16.75130705833435 L 3.1834214426068765 17.34727487564087 C 2.962027327874169 17.417914049886168 2.723144194398569 17.41065728776157 2.506441279954916 17.326708984375 C 2.289738365511263 17.24276068098843 2.1082552068836513 17.08717295639217 1.9921286398080547 16.88578202724457 L 0.1349329328908691 13.675699782371522 C 0.020024318807903854 13.47412352897227 -0.023109502850210736 13.239496149588376 0.012588428613191111 13.010202580690384 C 0.048286360076592955 12.780909011792392 0.16070239943855133 12.5705252263695 0.33144525471804587 12.413469177484513 L 1.7823792447563502 11.08909398317337 C 1.7163967253974415 10.489163068681956 1.7163967253974415 9.883799578994513 1.7823792447563502 9.283868664503098 L 0.33144525471804587 7.962549984455109 C 0.16046055214330132 7.805430981796235 0.047891639952916676 7.594857591204346 0.012187878513153482 7.365341490507126 C -0.023515882926609707 7.135825389809907 0.019763627451129362 6.900981793738902 0.1349329328908691 6.69930021762848 L 1.9880556521847628 3.4871811062097553 C 2.1041822192603594 3.2857901770621543 2.285665863403244 3.130201966688037 2.502368777846897 3.046253663301468 C 2.71907169229055 2.962305359914899 2.95795482576615 2.9550481120124457 3.1793489404988575 3.0256872862577437 L 5.049780749610025 3.6216560751199722 C 5.29822138778133 3.4382810678333042 5.556844252253228 3.267131070140749 5.8236124699052665 3.1122810751199723 C 6.0812168902307615 2.9676185703836384 6.345948037521768 2.836200153687969 6.616789060728871 2.719043901562691 L 7.03221534872426 0.801756189763546 C 7.081670674061079 0.5747763807885349 7.207174600700742 0.3715256511233747 7.387919374046403 0.22570283561944962 C 7.568664147392064 0.07988002011552453 7.793792618017656 0.00024446528905173185 8.025977719341252 0 L 11.732223127584335 0 C 11.964408228907931 0.00024446528905173185 12.189536699533523 0.07988002011552453 12.370281472879185 0.22570283561944962 C 12.551026246224847 0.3715256511233747 12.67653017286451 0.5747763807885349 12.725985498201329 0.801756189763546 L 13.145484288304738 2.7200625777244567 C 13.697600057930833 2.9638164630159736 14.221646520679176 3.266800726018846 14.708420097315564 3.6236939132213593 L 16.579868818165554 3.0277251243591308 C 16.801126169314863 2.957345750182867 17.03977966923879 2.964736230252311 17.25626344939855 3.048671379685402 C 17.47274722955831 3.132606529118493 17.65405994198047 3.288045279309154 17.770144466467915 3.4892189443111423 L 19.62326692783182 6.7013375699520115 C 19.859489164510286 7.1159688252955675 19.77803435823129 7.640625394694507 19.42675559220754 7.96356914639473 L 17.975820388381056 9.287943369150161 C 18.041802907739964 9.887874283641576 18.041802907739964 10.493237773329021 17.975820388381056 11.093168687820436 L 19.42675559220754 12.417543882131577 C 19.77803435823129 12.741506370715797 19.859489164510286 13.26514420323074 19.62326692783182 13.679775458574296 L 17.770144466467915 16.891893112659456 C 17.65401789939232 17.093284041807056 17.472535226279984 17.248873709514736 17.25583231183633 17.332822012901307 C 17.039129397392674 17.416770316287877 16.80024529288653 17.424027078412472 16.578851178153823 17.353387904167175 L 14.708420097315564 16.757418143749238 C 14.222874965353405 17.115355449728668 13.69900829497951 17.418090797122566 13.14650192831647 17.660030317306518 L 12.725985498201329 19.574263215065002 C 12.676328035408249 19.80105480030179 12.55073725843108 20.004072098527107 12.370011526387524 20.14969428777695 C 12.189285794343967 20.29531647702679 11.964267641891759 20.374806431326668 11.732223127584335 20.375 L 11.732223127584335 20.375 Z M 9.875028164112411 6.112500000000001 C 8.7948551204143 6.1125000000000025 7.7589225318183015 6.541828950121999 6.9951248949760485 7.306039673089981 C 6.2313272581337955 8.070250396057963 5.802229891777075 9.106742764264345 5.802229891777076 10.1875 C 5.802229891777076 11.268257235735655 6.2313272581337955 12.304749603942037 6.9951248949760485 13.06896032691002 C 7.7589225318183015 13.833171049878002 8.7948551204143 14.2625 9.875028164112411 14.262500000000001 C 10.955201207810521 14.2625 11.991132339860705 13.833171049878002 12.754929976702957 13.06896032691002 C 13.51872761354521 12.304749603942037 13.947825465417203 11.268257235735655 13.947825465417202 10.1875 C 13.947825465417203 9.106742764264345 13.51872761354521 8.070250396057963 12.754929976702957 7.306039673089981 C 11.991132339860705 6.541828950121999 10.955201207810521 6.112500000000003 9.875028164112411 6.112500000000001 L 9.875028164112411 6.112500000000001 Z" fill="rgb(255,254,251)"/>
        </svg>